<svg xmlns="http://www.w3.org/2000/svg" viewBox="0 0 360 360" width="360" height="360"><g transform="translate(108 100) scale(1.1)"><path d="M 0 -13 Q 2 -2 13 0 Q 2 2 0 13 Q -2 2 -13 0 Q -2 -2 0 -13 Z" fill="#FFD24D" stroke="#3A2C22" stroke-width="2.5" stroke-linejoin="round"/></g><g transform="translate(252 100) scale(1.1)"><path d="M 0 -13 Q 2 -2 13 0 Q 2 2 0 13 Q -2 2 -13 0 Q -2 -2 0 -13 Z" fill="#FFD24D" stroke="#3A2C22" stroke-width="2.5" stroke-linejoin="round"/></g><g transform="translate(180 66) scale(1.0) rotate(0)"><path d="M 0 6 C -10 -8 -28 2 -14 16 L 0 30 L 14 16 C 28 2 10 -8 0 6 Z" fill="#FF5C79" stroke="#3A2C22" stroke-width="4" stroke-linejoin="round" stroke-linecap="round"/></g><g><g transform="translate(0 234) scale(1 0.46) translate(0 -234)"><path d="M 168 228 Q 152 300 152 318" fill="none" stroke="#CFD5DC" stroke-width="15" stroke-linecap="round"/><circle cx="152" cy="318" r="11" fill="#CFD5DC" stroke="#3A2C22" stroke-width="4"/><path d="M 192 228 Q 208 300 208 318" fill="none" stroke="#CFD5DC" stroke-width="15" stroke-linecap="round"/><circle cx="208" cy="318" r="11" fill="#CFD5DC" stroke="#3A2C22" stroke-width="4"/></g><path d="M 148 154 C 144 194, 150 226, 158 232 L 202 232 C 210 226, 216 194, 212 154 C 196 142, 164 142, 148 154 Z" fill="#CFD5DC" stroke="#3A2C22" stroke-width="6" stroke-linejoin="round" stroke-linecap="round"/><g transform="rotate(0 180 104)"><path d="M 154 56 L 126 10 L 102 42 Z" fill="#CFD5DC" stroke="#3A2C22" stroke-width="6" stroke-linejoin="round" stroke-linecap="round"/><path d="M 140 48 L 126 26 L 114 40 Z" fill="#F4B5C6"/><path d="M 206 56 L 234 10 L 258 42 Z" fill="#CFD5DC" stroke="#3A2C22" stroke-width="6" stroke-linejoin="round" stroke-linecap="round"/><path d="M 220 48 L 234 26 L 246 40 Z" fill="#F4B5C6"/><circle cx="180" cy="104" r="64" fill="#CFD5DC" stroke="#3A2C22" stroke-width="6" stroke-linejoin="round" stroke-linecap="round"/><path d="M 171 110 L 189 110 L 180 119 Z" fill="#E28AA2" stroke="#3A2C22" stroke-width="3" stroke-linejoin="round" stroke-linecap="round"/><path d="M 164 112 q -20 -3.0 -32 -0.6" fill="none" stroke="#3A2C22" stroke-width="2.5" stroke-linecap="round" opacity="0.7"/><path d="M 164 120 q -20 1.0 -32 1.7999999999999998" fill="none" stroke="#3A2C22" stroke-width="2.5" stroke-linecap="round" opacity="0.7"/><path d="M 196 112 q 20 -3.0 32 -0.6" fill="none" stroke="#3A2C22" stroke-width="2.5" stroke-linecap="round" opacity="0.7"/><path d="M 196 120 q 20 1.0 32 1.7999999999999998" fill="none" stroke="#3A2C22" stroke-width="2.5" stroke-linecap="round" opacity="0.7"/><ellipse cx="161" cy="100" rx="14.0" ry="15.959999999999999" fill="#FFFFFF" stroke="#3A2C22" stroke-width="3.5"/><ellipse cx="161" cy="102" rx="10.36" ry="11.76" fill="#3A2C22"/><circle cx="156.5" cy="95.5" r="4.48" fill="#FFFFFF"/><circle cx="164.5" cy="105" r="2.3800000000000003" fill="#FFFFFF"/><ellipse cx="199" cy="100" rx="14.0" ry="15.959999999999999" fill="#FFFFFF" stroke="#3A2C22" stroke-width="3.5"/><ellipse cx="199" cy="102" rx="10.36" ry="11.76" fill="#3A2C22"/><circle cx="194.5" cy="95.5" r="4.48" fill="#FFFFFF"/><circle cx="202.5" cy="105" r="2.3800000000000003" fill="#FFFFFF"/><ellipse cx="144.16" cy="120" rx="10" ry="6.5" fill="#F58C86" opacity="0.6"/><ellipse cx="215.84" cy="120" rx="10" ry="6.5" fill="#F58C86" opacity="0.6"/><path d="M 167 122 Q 180 141 193 122 Z" fill="#B83B57" stroke="#3A2C22" stroke-width="4" stroke-linejoin="round" stroke-linecap="round"/></g><path d="M 152 158 Q 120 136 120 110" fill="none" stroke="#CFD5DC" stroke-width="16" stroke-linecap="round"/><circle cx="120" cy="110" r="10" fill="#CFD5DC" stroke="#3A2C22" stroke-width="5" stroke-linejoin="round"/><path d="M 208 158 Q 240 136 240 110" fill="none" stroke="#CFD5DC" stroke-width="16" stroke-linecap="round"/><circle cx="240" cy="110" r="10" fill="#CFD5DC" stroke="#3A2C22" stroke-width="5" stroke-linejoin="round"/></g><rect x="60" y="86" width="10" height="6" rx="2" fill="#FF5C79" transform="rotate(0 60 86)"/><rect x="100" y="96" width="10" height="6" rx="2" fill="#FFD24D" transform="rotate(30 100 86)"/><rect x="140" y="86" width="10" height="6" rx="2" fill="#7FCBF2" transform="rotate(60 140 86)"/><rect x="180" y="96" width="10" height="6" rx="2" fill="#8BD98B" transform="rotate(90 180 86)"/><rect x="220" y="86" width="10" height="6" rx="2" fill="#FF5C79" transform="rotate(120 220 86)"/><rect x="260" y="96" width="10" height="6" rx="2" fill="#FFD24D" transform="rotate(150 260 86)"/><rect x="300" y="86" width="10" height="6" rx="2" fill="#7FCBF2" transform="rotate(180 300 86)"/></svg>