<svg xmlns="http://www.w3.org/2000/svg" viewBox="0 0 360 360" width="360" height="360"><path d="M 167 121.0 C 176.0 134.0 174.0 143.0 167 143.0 C 160.0 143.0 158.0 134.0 167 121.0 Z" fill="#7FCBF2" stroke="#3A2C22" stroke-width="3"/><path d="M 193 121.0 C 202.0 134.0 200.0 143.0 193 143.0 C 186.0 143.0 184.0 134.0 193 121.0 Z" fill="#7FCBF2" stroke="#3A2C22" stroke-width="3"/><path d="M 150 70 q 10 -8 20 0" fill="none" stroke="#B9B2A6" stroke-width="4" stroke-linecap="round"/><path d="M 196 66 q 10 -8 20 0" fill="none" stroke="#B9B2A6" stroke-width="4" stroke-linecap="round"/><g><path d="M 91 222 C 79 246, 81 294, 95 308 C 107 320, 155 320, 167 308 C 181 294, 183 246, 171 222 C 153 208, 109 208, 91 222 Z" fill="#343039" stroke="#3A2C22" stroke-width="6" stroke-linejoin="round" stroke-linecap="round"/><path d="M 99 304 Q 131 316 163 304" fill="none" stroke="#252230" stroke-width="6" stroke-linecap="round"/></g><g><path d="M 189 222 C 177 246, 179 294, 193 308 C 205 320, 253 320, 265 308 C 279 294, 281 246, 269 222 C 251 208, 207 208, 189 222 Z" fill="#D9CCB3" stroke="#3A2C22" stroke-width="6" stroke-linejoin="round" stroke-linecap="round"/><path d="M 197 304 Q 229 316 261 304" fill="none" stroke="#C5B693" stroke-width="6" stroke-linecap="round"/></g><path d="M 89 234 Q 71 256 79 290" fill="none" stroke="#343039" stroke-width="25" stroke-linecap="round"/><circle cx="79" cy="290" r="13" fill="#F7D3B6" stroke="#3A2C22" stroke-width="5" stroke-linejoin="round"/><path d="M 271 234 Q 289 256 281 290" fill="none" stroke="#D9CCB3" stroke-width="25" stroke-linecap="round"/><circle cx="281" cy="290" r="13" fill="#F7D3B6" stroke="#3A2C22" stroke-width="5" stroke-linejoin="round"/><g transform="rotate(-4 131 156)"><path d="M 55 154 C 51 68, 211 68, 207 154 L 208 246 Q 205 264 185 258 Q 131 254 77 258 Q 57 264 54 246 Z" fill="#1F1B1A" stroke="#3A2C22" stroke-width="6" stroke-linejoin="round" stroke-linecap="round"/><circle cx="68" cy="164" r="11" fill="#F7D3B6" stroke="#3A2C22" stroke-width="5" stroke-linejoin="round" stroke-linecap="round"/><circle cx="194" cy="164" r="11" fill="#F7D3B6" stroke="#3A2C22" stroke-width="5" stroke-linejoin="round" stroke-linecap="round"/><circle cx="131" cy="156" r="68" fill="#F7D3B6" stroke="#3A2C22" stroke-width="6" stroke-linejoin="round" stroke-linecap="round"/><path d="M 65 134 C 64 86, 198 86, 197 134 Q 183 148, 169 142 Q 131 154, 93 142 Q 79 148, 65 134 Z" fill="#1F1B1A" stroke="#3A2C22" stroke-width="6" stroke-linejoin="round" stroke-linecap="round"/><path d="M 103 155 Q 112 164 121 155" fill="none" stroke="#3A2C22" stroke-width="5" stroke-linejoin="round" stroke-linecap="round"/><path d="M 141 155 Q 150 164 159 155" fill="none" stroke="#3A2C22" stroke-width="5" stroke-linejoin="round" stroke-linecap="round"/><ellipse cx="93" cy="176" rx="10" ry="6.5" fill="#F58C86" opacity="0.6"/><ellipse cx="169" cy="176" rx="10" ry="6.5" fill="#F58C86" opacity="0.6"/><path d="M 120 184 L 142 184" stroke="#3A2C22" stroke-width="5" stroke-linejoin="round" stroke-linecap="round"/></g><g transform="rotate(4 229 156)"><circle cx="166" cy="164" r="11" fill="#F7D3B6" stroke="#3A2C22" stroke-width="5" stroke-linejoin="round" stroke-linecap="round"/><circle cx="292" cy="164" r="11" fill="#F7D3B6" stroke="#3A2C22" stroke-width="5" stroke-linejoin="round" stroke-linecap="round"/><circle cx="229" cy="156" r="68" fill="#F7D3B6" stroke="#3A2C22" stroke-width="6" stroke-linejoin="round" stroke-linecap="round"/><path d="M 160 152 C 159 62, 299 62, 298 152 C 289 118, 249 78, 227 84 C 207 76, 161 120, 160 152 Z" fill="#2B2723" stroke="#3A2C22" stroke-width="6" stroke-linejoin="round" stroke-linecap="round"/><path d="M 225 84 q 16 -12 24 4" fill="#2B2723" stroke="#3A2C22" stroke-width="5" stroke-linejoin="round" stroke-linecap="round"/><path d="M 201 155 Q 210 164 219 155" fill="none" stroke="#3A2C22" stroke-width="5" stroke-linejoin="round" stroke-linecap="round"/><path d="M 239 155 Q 248 164 257 155" fill="none" stroke="#3A2C22" stroke-width="5" stroke-linejoin="round" stroke-linecap="round"/><rect x="193" y="142" width="34" height="28" rx="11" fill="#FFFFFF" fill-opacity="0.16" stroke="#2B2723" stroke-width="5" stroke-linejoin="round"/><rect x="231" y="142" width="34" height="28" rx="11" fill="#FFFFFF" fill-opacity="0.16" stroke="#2B2723" stroke-width="5" stroke-linejoin="round"/><path d="M 227 153 L 231 153" stroke="#2B2723" stroke-width="5" stroke-linecap="round"/><path d="M 193 151 l -11 -3" stroke="#2B2723" stroke-width="5" stroke-linecap="round"/><path d="M 265 151 l 11 -3" stroke="#2B2723" stroke-width="5" stroke-linecap="round"/><ellipse cx="191" cy="176" rx="10" ry="6.5" fill="#F58C86" opacity="0.6"/><ellipse cx="267" cy="176" rx="10" ry="6.5" fill="#F58C86" opacity="0.6"/><path d="M 218 184 L 240 184" stroke="#3A2C22" stroke-width="5" stroke-linejoin="round" stroke-linecap="round"/></g></svg>