<svg xmlns="http://www.w3.org/2000/svg" viewBox="0 0 360 360" width="360" height="360"><path d="M 168 78 q 9.600000000000001 9.600000000000001 0 19.200000000000003 q -9.600000000000001 -9.600000000000001 -19.200000000000003 0 Z" fill="#F2565B" stroke="#3A2C22" stroke-width="2.5"/><path d="M 186 76 q 9.600000000000001 9.600000000000001 0 19.200000000000003 q -9.600000000000001 -9.600000000000001 -19.200000000000003 0 Z" fill="#F2565B" stroke="#3A2C22" stroke-width="2.5"/><path d="M 194 92 q 9.600000000000001 9.600000000000001 0 19.200000000000003 q -9.600000000000001 -9.600000000000001 -19.200000000000003 0 Z" fill="#F2565B" stroke="#3A2C22" stroke-width="2.5"/><path d="M 178 100 q 9.600000000000001 9.600000000000001 0 19.200000000000003 q -9.600000000000001 -9.600000000000001 -19.200000000000003 0 Z" fill="#F2565B" stroke="#3A2C22" stroke-width="2.5"/><g><path d="M 69 216 C 57 240, 59 288, 73 302 C 81 314, 129 314, 137 302 C 151 288, 153 240, 141 216 C 127 202, 83 202, 69 216 Z" fill="#FF8FB0" stroke="#3A2C22" stroke-width="6" stroke-linejoin="round" stroke-linecap="round"/><path d="M 77 298 Q 105 310 133 298" fill="none" stroke="#F0688F" stroke-width="6" stroke-linecap="round"/></g><g><path d="M 219 216 C 207 240, 209 288, 223 302 C 231 314, 279 314, 287 302 C 301 288, 303 240, 291 216 C 277 202, 233 202, 219 216 Z" fill="#D9CCB3" stroke="#3A2C22" stroke-width="6" stroke-linejoin="round" stroke-linecap="round"/><path d="M 227 298 Q 255 310 283 298" fill="none" stroke="#C5B693" stroke-width="6" stroke-linecap="round"/></g><path d="M 65 226 Q 47 252 55 282" fill="none" stroke="#FF8FB0" stroke-width="20" stroke-linecap="round"/><circle cx="55" cy="282" r="10" fill="#F7D3B6" stroke="#3A2C22" stroke-width="5" stroke-linejoin="round"/><path d="M 295 226 Q 313 252 305 282" fill="none" stroke="#D9CCB3" stroke-width="20" stroke-linecap="round"/><circle cx="305" cy="282" r="10" fill="#F7D3B6" stroke="#3A2C22" stroke-width="5" stroke-linejoin="round"/><path d="M 145 220 L 81 250" stroke="#FF8FB0" stroke-width="19" stroke-linecap="round"/><path d="M 65 226 L 127 254" stroke="#FF8FB0" stroke-width="19" stroke-linecap="round"/><path d="M 215 220 L 279 250" stroke="#D9CCB3" stroke-width="19" stroke-linecap="round"/><path d="M 295 226 L 233 254" stroke="#D9CCB3" stroke-width="19" stroke-linecap="round"/><g transform="rotate(-10 105 150)"><path d="M 25 148 C 21 58, 189 58, 185 148 L 186 244 Q 183 262 163 256 Q 105 252 47 256 Q 27 262 24 244 Z" fill="#1F1B1A" stroke="#3A2C22" stroke-width="6" stroke-linejoin="round" stroke-linecap="round"/><circle cx="38" cy="158" r="11" fill="#F7D3B6" stroke="#3A2C22" stroke-width="5" stroke-linejoin="round" stroke-linecap="round"/><circle cx="172" cy="158" r="11" fill="#F7D3B6" stroke="#3A2C22" stroke-width="5" stroke-linejoin="round" stroke-linecap="round"/><circle cx="105" cy="150" r="72" fill="#F7D3B6" stroke="#3A2C22" stroke-width="6" stroke-linejoin="round" stroke-linecap="round"/><path d="M 35 128 C 34 76, 176 76, 175 128 Q 161 142, 147 136 Q 105 148, 63 136 Q 49 142, 35 128 Z" fill="#1F1B1A" stroke="#3A2C22" stroke-width="6" stroke-linejoin="round" stroke-linecap="round"/><circle cx="86" cy="150" r="7" fill="#3A2C22"/><circle cx="124" cy="150" r="7" fill="#3A2C22"/><path d="M 75 139 L 92 144" stroke="#3A2C22" stroke-width="5" stroke-linejoin="round" stroke-linecap="round"/><path d="M 135 139 L 118 144" stroke="#3A2C22" stroke-width="5" stroke-linejoin="round" stroke-linecap="round"/><ellipse cx="67" cy="170" rx="10" ry="6.5" fill="#F58C86" opacity="0.6"/><ellipse cx="143" cy="170" rx="10" ry="6.5" fill="#F58C86" opacity="0.6"/><path d="M 95 184 Q 105 172 115 184" fill="none" stroke="#3A2C22" stroke-width="5" stroke-linejoin="round" stroke-linecap="round"/></g><g transform="rotate(10 255 150)"><circle cx="188" cy="158" r="11" fill="#F7D3B6" stroke="#3A2C22" stroke-width="5" stroke-linejoin="round" stroke-linecap="round"/><circle cx="322" cy="158" r="11" fill="#F7D3B6" stroke="#3A2C22" stroke-width="5" stroke-linejoin="round" stroke-linecap="round"/><circle cx="255" cy="150" r="72" fill="#F7D3B6" stroke="#3A2C22" stroke-width="6" stroke-linejoin="round" stroke-linecap="round"/><path d="M 182 146 C 181 52, 329 52, 328 146 C 319 112, 275 68, 253 74 C 233 66, 183 114, 182 146 Z" fill="#2B2723" stroke="#3A2C22" stroke-width="6" stroke-linejoin="round" stroke-linecap="round"/><path d="M 251 74 q 16 -12 24 4" fill="#2B2723" stroke="#3A2C22" stroke-width="5" stroke-linejoin="round" stroke-linecap="round"/><circle cx="236" cy="150" r="7" fill="#3A2C22"/><circle cx="274" cy="150" r="7" fill="#3A2C22"/><path d="M 225 139 L 242 144" stroke="#3A2C22" stroke-width="5" stroke-linejoin="round" stroke-linecap="round"/><path d="M 285 139 L 268 144" stroke="#3A2C22" stroke-width="5" stroke-linejoin="round" stroke-linecap="round"/><rect x="219" y="136" width="34" height="28" rx="11" fill="#FFFFFF" fill-opacity="0.16" stroke="#2B2723" stroke-width="5" stroke-linejoin="round"/><rect x="257" y="136" width="34" height="28" rx="11" fill="#FFFFFF" fill-opacity="0.16" stroke="#2B2723" stroke-width="5" stroke-linejoin="round"/><path d="M 253 147 L 257 147" stroke="#2B2723" stroke-width="5" stroke-linecap="round"/><path d="M 219 145 l -11 -3" stroke="#2B2723" stroke-width="5" stroke-linecap="round"/><path d="M 291 145 l 11 -3" stroke="#2B2723" stroke-width="5" stroke-linecap="round"/><ellipse cx="217" cy="170" rx="10" ry="6.5" fill="#F58C86" opacity="0.6"/><ellipse cx="293" cy="170" rx="10" ry="6.5" fill="#F58C86" opacity="0.6"/><path d="M 245 184 Q 255 172 265 184" fill="none" stroke="#3A2C22" stroke-width="5" stroke-linejoin="round" stroke-linecap="round"/></g></svg>