<svg xmlns="http://www.w3.org/2000/svg" viewBox="0 0 360 360" width="360" height="360"><g><path d="M 329.0 64.0 L 340.0 64.0" stroke="#FFC53D" stroke-width="5" stroke-linecap="round"/><path d="M 321.1 83.1 L 328.9 90.9" stroke="#FFC53D" stroke-width="5" stroke-linecap="round"/><path d="M 302.0 91.0 L 302.0 102.0" stroke="#FFC53D" stroke-width="5" stroke-linecap="round"/><path d="M 282.9 83.1 L 275.1 90.9" stroke="#FFC53D" stroke-width="5" stroke-linecap="round"/><path d="M 275.0 64.0 L 264.0 64.0" stroke="#FFC53D" stroke-width="5" stroke-linecap="round"/><path d="M 282.9 44.9 L 275.1 37.1" stroke="#FFC53D" stroke-width="5" stroke-linecap="round"/><path d="M 302.0 37.0 L 302.0 26.0" stroke="#FFC53D" stroke-width="5" stroke-linecap="round"/><path d="M 321.1 44.9 L 328.9 37.1" stroke="#FFC53D" stroke-width="5" stroke-linecap="round"/><circle cx="302" cy="64" r="22" fill="#FFD24D" stroke="#3A2C22" stroke-width="4"/></g><path d="M 66.22 66.22 L 73.78 66.22 L 66.22 73.78 L 73.78 73.78" fill="none" stroke="#3A2C22" stroke-width="1.68" stroke-linejoin="round" stroke-linecap="round"/><path d="M 75.39999999999999 52.6 L 86.2 52.6 L 75.39999999999999 63.4 L 86.2 63.4" fill="none" stroke="#3A2C22" stroke-width="2.4" stroke-linejoin="round" stroke-linecap="round"/><path d="M 87.91 36.31 L 102.49000000000001 36.31 L 87.91 50.89 L 102.49000000000001 50.89" fill="none" stroke="#3A2C22" stroke-width="3.24" stroke-linejoin="round" stroke-linecap="round"/><g><path d="M 94 224 C 82 248, 84 296, 98 310 C 106 322, 154 322, 162 310 C 176 296, 178 248, 166 224 C 152 210, 108 210, 94 224 Z" fill="#FF8FB0" stroke="#3A2C22" stroke-width="6" stroke-linejoin="round" stroke-linecap="round"/><path d="M 102 306 Q 130 318 158 306" fill="none" stroke="#F0688F" stroke-width="6" stroke-linecap="round"/></g><g><path d="M 194 224 C 182 248, 184 296, 198 310 C 206 322, 254 322, 262 310 C 276 296, 278 248, 266 224 C 252 210, 208 210, 194 224 Z" fill="#D9CCB3" stroke="#3A2C22" stroke-width="6" stroke-linejoin="round" stroke-linecap="round"/><path d="M 202 306 Q 230 318 258 306" fill="none" stroke="#C5B693" stroke-width="6" stroke-linecap="round"/></g><path d="M 90 232 Q 68 212 74 176" fill="none" stroke="#FF8FB0" stroke-width="20" stroke-linecap="round"/><circle cx="74" cy="176" r="10" fill="#F7D3B6" stroke="#3A2C22" stroke-width="5" stroke-linejoin="round"/><path d="M 170 230 Q 142 192 164 184" fill="none" stroke="#FF8FB0" stroke-width="20" stroke-linecap="round"/><circle cx="164" cy="184" r="10" fill="#F7D3B6" stroke="#3A2C22" stroke-width="5" stroke-linejoin="round"/><path d="M 270 232 Q 292 212 286 176" fill="none" stroke="#D9CCB3" stroke-width="20" stroke-linecap="round"/><circle cx="286" cy="176" r="10" fill="#F7D3B6" stroke="#3A2C22" stroke-width="5" stroke-linejoin="round"/><path d="M 190 230 Q 218 192 196 184" fill="none" stroke="#D9CCB3" stroke-width="20" stroke-linecap="round"/><circle cx="196" cy="184" r="10" fill="#F7D3B6" stroke="#3A2C22" stroke-width="5" stroke-linejoin="round"/><g transform="rotate(6 130 158)"><path d="M 50 156 C 46 66, 214 66, 210 156 L 211 252 Q 208 270 188 264 Q 130 260 72 264 Q 52 270 49 252 Z" fill="#1F1B1A" stroke="#3A2C22" stroke-width="6" stroke-linejoin="round" stroke-linecap="round"/><circle cx="63" cy="166" r="11" fill="#F7D3B6" stroke="#3A2C22" stroke-width="5" stroke-linejoin="round" stroke-linecap="round"/><circle cx="197" cy="166" r="11" fill="#F7D3B6" stroke="#3A2C22" stroke-width="5" stroke-linejoin="round" stroke-linecap="round"/><circle cx="130" cy="158" r="72" fill="#F7D3B6" stroke="#3A2C22" stroke-width="6" stroke-linejoin="round" stroke-linecap="round"/><path d="M 60 136 C 59 84, 201 84, 200 136 Q 186 150, 172 144 Q 130 156, 88 144 Q 74 150, 60 136 Z" fill="#1F1B1A" stroke="#3A2C22" stroke-width="6" stroke-linejoin="round" stroke-linecap="round"/><path d="M 100 162 Q 111 147 122 162" fill="none" stroke="#3A2C22" stroke-width="6" stroke-linejoin="round" stroke-linecap="round"/><path d="M 138 162 Q 149 147 160 162" fill="none" stroke="#3A2C22" stroke-width="6" stroke-linejoin="round" stroke-linecap="round"/><ellipse cx="92" cy="178" rx="10" ry="6.5" fill="#F58C86" opacity="0.6"/><ellipse cx="168" cy="178" rx="10" ry="6.5" fill="#F58C86" opacity="0.6"/><path d="M 117 186 Q 130 199 143 186" fill="none" stroke="#3A2C22" stroke-width="5" stroke-linejoin="round" stroke-linecap="round"/></g><g transform="rotate(-6 230 158)"><circle cx="163" cy="166" r="11" fill="#F7D3B6" stroke="#3A2C22" stroke-width="5" stroke-linejoin="round" stroke-linecap="round"/><circle cx="297" cy="166" r="11" fill="#F7D3B6" stroke="#3A2C22" stroke-width="5" stroke-linejoin="round" stroke-linecap="round"/><circle cx="230" cy="158" r="72" fill="#F7D3B6" stroke="#3A2C22" stroke-width="6" stroke-linejoin="round" stroke-linecap="round"/><path d="M 157 154 C 156 60, 304 60, 303 154 C 294 120, 250 76, 228 82 C 208 74, 158 122, 157 154 Z" fill="#2B2723" stroke="#3A2C22" stroke-width="6" stroke-linejoin="round" stroke-linecap="round"/><path d="M 226 82 q 16 -12 24 4" fill="#2B2723" stroke="#3A2C22" stroke-width="5" stroke-linejoin="round" stroke-linecap="round"/><path d="M 200 162 Q 211 147 222 162" fill="none" stroke="#3A2C22" stroke-width="6" stroke-linejoin="round" stroke-linecap="round"/><path d="M 238 162 Q 249 147 260 162" fill="none" stroke="#3A2C22" stroke-width="6" stroke-linejoin="round" stroke-linecap="round"/><rect x="194" y="144" width="34" height="28" rx="11" fill="#FFFFFF" fill-opacity="0.16" stroke="#2B2723" stroke-width="5" stroke-linejoin="round"/><rect x="232" y="144" width="34" height="28" rx="11" fill="#FFFFFF" fill-opacity="0.16" stroke="#2B2723" stroke-width="5" stroke-linejoin="round"/><path d="M 228 155 L 232 155" stroke="#2B2723" stroke-width="5" stroke-linecap="round"/><path d="M 194 153 l -11 -3" stroke="#2B2723" stroke-width="5" stroke-linecap="round"/><path d="M 266 153 l 11 -3" stroke="#2B2723" stroke-width="5" stroke-linecap="round"/><ellipse cx="192" cy="178" rx="10" ry="6.5" fill="#F58C86" opacity="0.6"/><ellipse cx="268" cy="178" rx="10" ry="6.5" fill="#F58C86" opacity="0.6"/><ellipse cx="230" cy="189" rx="6.5" ry="8.06" fill="#B83B57" stroke="#3A2C22" stroke-width="4" stroke-linejoin="round" stroke-linecap="round"/></g></svg>