<svg xmlns="http://www.w3.org/2000/svg" viewBox="0 0 360 360" width="360" height="360"><g transform="translate(180 64) scale(1.6) rotate(0)"><path d="M 0 6 C -10 -8 -28 2 -14 16 L 0 30 L 14 16 C 28 2 10 -8 0 6 Z" fill="#FF5C79" stroke="#3A2C22" stroke-width="4" stroke-linejoin="round" stroke-linecap="round"/></g><g transform="translate(112 104) scale(0.9) rotate(-15)"><path d="M 0 6 C -10 -8 -28 2 -14 16 L 0 30 L 14 16 C 28 2 10 -8 0 6 Z" fill="#FF89A0" stroke="#3A2C22" stroke-width="4" stroke-linejoin="round" stroke-linecap="round"/></g><g transform="translate(250 100) scale(1.0) rotate(12)"><path d="M 0 6 C -10 -8 -28 2 -14 16 L 0 30 L 14 16 C 28 2 10 -8 0 6 Z" fill="#FF89A0" stroke="#3A2C22" stroke-width="4" stroke-linejoin="round" stroke-linecap="round"/></g><g><path d="M 94 216 C 82 240, 84 288, 98 302 C 110 314, 158 314, 170 302 C 184 288, 186 240, 174 216 C 156 202, 112 202, 94 216 Z" fill="#343039" stroke="#3A2C22" stroke-width="6" stroke-linejoin="round" stroke-linecap="round"/><path d="M 102 298 Q 134 310 166 298" fill="none" stroke="#252230" stroke-width="6" stroke-linecap="round"/></g><g><path d="M 186 216 C 174 240, 176 288, 190 302 C 202 314, 250 314, 262 302 C 276 288, 278 240, 266 216 C 248 202, 204 202, 186 216 Z" fill="#D9CCB3" stroke="#3A2C22" stroke-width="6" stroke-linejoin="round" stroke-linecap="round"/><path d="M 194 298 Q 226 310 258 298" fill="none" stroke="#C5B693" stroke-width="6" stroke-linecap="round"/></g><path d="M 92 228 Q 74 250 82 284" fill="none" stroke="#343039" stroke-width="25" stroke-linecap="round"/><circle cx="82" cy="284" r="13" fill="#F7D3B6" stroke="#3A2C22" stroke-width="5" stroke-linejoin="round"/><path d="M 268 228 Q 286 250 278 284" fill="none" stroke="#D9CCB3" stroke-width="25" stroke-linecap="round"/><circle cx="278" cy="284" r="13" fill="#F7D3B6" stroke="#3A2C22" stroke-width="5" stroke-linejoin="round"/><path d="M 174 220 Q 180 184 256 208" fill="none" stroke="#343039" stroke-width="25" stroke-linecap="round"/><circle cx="256" cy="208" r="13" fill="#F7D3B6" stroke="#3A2C22" stroke-width="5" stroke-linejoin="round"/><path d="M 186 220 Q 180 196 104 216" fill="none" stroke="#D9CCB3" stroke-width="25" stroke-linecap="round"/><circle cx="104" cy="216" r="13" fill="#F7D3B6" stroke="#3A2C22" stroke-width="5" stroke-linejoin="round"/><g transform="rotate(9 134 150)"><path d="M 58 148 C 54 62, 214 62, 210 148 L 211 240 Q 208 258 188 252 Q 134 248 80 252 Q 60 258 57 240 Z" fill="#1F1B1A" stroke="#3A2C22" stroke-width="6" stroke-linejoin="round" stroke-linecap="round"/><circle cx="71" cy="158" r="11" fill="#F7D3B6" stroke="#3A2C22" stroke-width="5" stroke-linejoin="round" stroke-linecap="round"/><circle cx="197" cy="158" r="11" fill="#F7D3B6" stroke="#3A2C22" stroke-width="5" stroke-linejoin="round" stroke-linecap="round"/><circle cx="134" cy="150" r="68" fill="#F7D3B6" stroke="#3A2C22" stroke-width="6" stroke-linejoin="round" stroke-linecap="round"/><path d="M 68 128 C 67 80, 201 80, 200 128 Q 186 142, 172 136 Q 134 148, 96 136 Q 82 142, 68 128 Z" fill="#1F1B1A" stroke="#3A2C22" stroke-width="6" stroke-linejoin="round" stroke-linecap="round"/><ellipse cx="115" cy="150" rx="14.0" ry="15.959999999999999" fill="#FFFFFF" stroke="#3A2C22" stroke-width="3.5"/><ellipse cx="115" cy="152" rx="10.36" ry="11.76" fill="#3A2C22"/><circle cx="110.5" cy="145.5" r="4.48" fill="#FFFFFF"/><circle cx="118.5" cy="155" r="2.3800000000000003" fill="#FFFFFF"/><ellipse cx="153" cy="150" rx="14.0" ry="15.959999999999999" fill="#FFFFFF" stroke="#3A2C22" stroke-width="3.5"/><ellipse cx="153" cy="152" rx="10.36" ry="11.76" fill="#3A2C22"/><circle cx="148.5" cy="145.5" r="4.48" fill="#FFFFFF"/><circle cx="156.5" cy="155" r="2.3800000000000003" fill="#FFFFFF"/><ellipse cx="96" cy="170" rx="10" ry="6.5" fill="#F58C86" opacity="0.6"/><ellipse cx="172" cy="170" rx="10" ry="6.5" fill="#F58C86" opacity="0.6"/><path d="M 121 178 Q 134 191 147 178" fill="none" stroke="#3A2C22" stroke-width="5" stroke-linejoin="round" stroke-linecap="round"/></g><g transform="rotate(-7 226 150)"><circle cx="163" cy="158" r="11" fill="#F7D3B6" stroke="#3A2C22" stroke-width="5" stroke-linejoin="round" stroke-linecap="round"/><circle cx="289" cy="158" r="11" fill="#F7D3B6" stroke="#3A2C22" stroke-width="5" stroke-linejoin="round" stroke-linecap="round"/><circle cx="226" cy="150" r="68" fill="#F7D3B6" stroke="#3A2C22" stroke-width="6" stroke-linejoin="round" stroke-linecap="round"/><path d="M 157 146 C 156 56, 296 56, 295 146 C 286 112, 246 72, 224 78 C 204 70, 158 114, 157 146 Z" fill="#2B2723" stroke="#3A2C22" stroke-width="6" stroke-linejoin="round" stroke-linecap="round"/><path d="M 222 78 q 16 -12 24 4" fill="#2B2723" stroke="#3A2C22" stroke-width="5" stroke-linejoin="round" stroke-linecap="round"/><ellipse cx="207" cy="150" rx="14.0" ry="15.959999999999999" fill="#FFFFFF" stroke="#3A2C22" stroke-width="3.5"/><ellipse cx="207" cy="152" rx="10.36" ry="11.76" fill="#3A2C22"/><circle cx="202.5" cy="145.5" r="4.48" fill="#FFFFFF"/><circle cx="210.5" cy="155" r="2.3800000000000003" fill="#FFFFFF"/><ellipse cx="245" cy="150" rx="14.0" ry="15.959999999999999" fill="#FFFFFF" stroke="#3A2C22" stroke-width="3.5"/><ellipse cx="245" cy="152" rx="10.36" ry="11.76" fill="#3A2C22"/><circle cx="240.5" cy="145.5" r="4.48" fill="#FFFFFF"/><circle cx="248.5" cy="155" r="2.3800000000000003" fill="#FFFFFF"/><rect x="190" y="136" width="34" height="28" rx="11" fill="#FFFFFF" fill-opacity="0.16" stroke="#2B2723" stroke-width="5" stroke-linejoin="round"/><rect x="228" y="136" width="34" height="28" rx="11" fill="#FFFFFF" fill-opacity="0.16" stroke="#2B2723" stroke-width="5" stroke-linejoin="round"/><path d="M 224 147 L 228 147" stroke="#2B2723" stroke-width="5" stroke-linecap="round"/><path d="M 190 145 l -11 -3" stroke="#2B2723" stroke-width="5" stroke-linecap="round"/><path d="M 262 145 l 11 -3" stroke="#2B2723" stroke-width="5" stroke-linecap="round"/><ellipse cx="188" cy="170" rx="10" ry="6.5" fill="#F58C86" opacity="0.6"/><ellipse cx="264" cy="170" rx="10" ry="6.5" fill="#F58C86" opacity="0.6"/><path d="M 213 178 Q 226 191 239 178" fill="none" stroke="#3A2C22" stroke-width="5" stroke-linejoin="round" stroke-linecap="round"/></g></svg>