<svg xmlns="http://www.w3.org/2000/svg" viewBox="0 0 360 360" width="360" height="360"><g transform="translate(180 58) scale(1.7) rotate(0)"><path d="M 0 6 C -10 -8 -28 2 -14 16 L 0 30 L 14 16 C 28 2 10 -8 0 6 Z" fill="#FF5C79" stroke="#3A2C22" stroke-width="4" stroke-linejoin="round" stroke-linecap="round"/></g><g transform="translate(300 120) scale(0.8) rotate(10)"><path d="M 0 6 C -10 -8 -28 2 -14 16 L 0 30 L 14 16 C 28 2 10 -8 0 6 Z" fill="#FF89A0" stroke="#3A2C22" stroke-width="4" stroke-linejoin="round" stroke-linecap="round"/></g><g transform="translate(64 120) scale(0.8) rotate(-10)"><path d="M 0 6 C -10 -8 -28 2 -14 16 L 0 30 L 14 16 C 28 2 10 -8 0 6 Z" fill="#FF89A0" stroke="#3A2C22" stroke-width="4" stroke-linejoin="round" stroke-linecap="round"/></g><path d="M 92 230 Q 72 256 80 286" fill="none" stroke="#343039" stroke-width="25" stroke-linecap="round"/><circle cx="80" cy="286" r="13" fill="#F7D3B6" stroke="#3A2C22" stroke-width="5" stroke-linejoin="round"/><path d="M 268 230 Q 288 256 280 286" fill="none" stroke="#D9CCB3" stroke-width="25" stroke-linecap="round"/><circle cx="280" cy="286" r="13" fill="#F7D3B6" stroke="#3A2C22" stroke-width="5" stroke-linejoin="round"/><path d="M 170 222 Q 156 208 168 200" fill="none" stroke="#343039" stroke-width="24" stroke-linecap="round"/><path d="M 190 222 Q 204 208 192 200" fill="none" stroke="#D9CCB3" stroke-width="24" stroke-linecap="round"/><g transform="translate(180 194) scale(1.15) rotate(0)"><path d="M 0 6 C -10 -8 -28 2 -14 16 L 0 30 L 14 16 C 28 2 10 -8 0 6 Z" fill="#FF5C79" stroke="#3A2C22" stroke-width="4" stroke-linejoin="round" stroke-linecap="round"/></g><g><path d="M 92 220 C 80 244, 82 292, 96 306 C 108 318, 156 318, 168 306 C 182 292, 184 244, 172 220 C 154 206, 110 206, 92 220 Z" fill="#343039" stroke="#3A2C22" stroke-width="6" stroke-linejoin="round" stroke-linecap="round"/><path d="M 100 302 Q 132 314 164 302" fill="none" stroke="#252230" stroke-width="6" stroke-linecap="round"/></g><g><path d="M 188 220 C 176 244, 178 292, 192 306 C 204 318, 252 318, 264 306 C 278 292, 280 244, 268 220 C 250 206, 206 206, 188 220 Z" fill="#D9CCB3" stroke="#3A2C22" stroke-width="6" stroke-linejoin="round" stroke-linecap="round"/><path d="M 196 302 Q 228 314 260 302" fill="none" stroke="#C5B693" stroke-width="6" stroke-linecap="round"/></g><path d="M 90 232 Q 72 254 80 288" fill="none" stroke="#343039" stroke-width="25" stroke-linecap="round"/><circle cx="80" cy="288" r="13" fill="#F7D3B6" stroke="#3A2C22" stroke-width="5" stroke-linejoin="round"/><path d="M 270 232 Q 288 254 280 288" fill="none" stroke="#D9CCB3" stroke-width="25" stroke-linecap="round"/><circle cx="280" cy="288" r="13" fill="#F7D3B6" stroke="#3A2C22" stroke-width="5" stroke-linejoin="round"/><g transform="rotate(9 132 154)"><path d="M 56 152 C 52 66, 212 66, 208 152 L 209 244 Q 206 262 186 256 Q 132 252 78 256 Q 58 262 55 244 Z" fill="#1F1B1A" stroke="#3A2C22" stroke-width="6" stroke-linejoin="round" stroke-linecap="round"/><circle cx="69" cy="162" r="11" fill="#F7D3B6" stroke="#3A2C22" stroke-width="5" stroke-linejoin="round" stroke-linecap="round"/><circle cx="195" cy="162" r="11" fill="#F7D3B6" stroke="#3A2C22" stroke-width="5" stroke-linejoin="round" stroke-linecap="round"/><circle cx="132" cy="154" r="68" fill="#F7D3B6" stroke="#3A2C22" stroke-width="6" stroke-linejoin="round" stroke-linecap="round"/><path d="M 66 132 C 65 84, 199 84, 198 132 Q 184 146, 170 140 Q 132 152, 94 140 Q 80 146, 66 132 Z" fill="#1F1B1A" stroke="#3A2C22" stroke-width="6" stroke-linejoin="round" stroke-linecap="round"/><ellipse cx="113" cy="154" rx="14.0" ry="15.959999999999999" fill="#FFFFFF" stroke="#3A2C22" stroke-width="3.5"/><ellipse cx="113" cy="156" rx="10.36" ry="11.76" fill="#3A2C22"/><circle cx="108.5" cy="149.5" r="4.48" fill="#FFFFFF"/><circle cx="116.5" cy="159" r="2.3800000000000003" fill="#FFFFFF"/><ellipse cx="151" cy="154" rx="14.0" ry="15.959999999999999" fill="#FFFFFF" stroke="#3A2C22" stroke-width="3.5"/><ellipse cx="151" cy="156" rx="10.36" ry="11.76" fill="#3A2C22"/><circle cx="146.5" cy="149.5" r="4.48" fill="#FFFFFF"/><circle cx="154.5" cy="159" r="2.3800000000000003" fill="#FFFFFF"/><ellipse cx="94" cy="174" rx="10" ry="6.5" fill="#F58C86" opacity="0.6"/><ellipse cx="170" cy="174" rx="10" ry="6.5" fill="#F58C86" opacity="0.6"/><path d="M 119 182 Q 125.5 191 132 182 Q 138.5 191 145 182" fill="none" stroke="#3A2C22" stroke-width="5" stroke-linejoin="round" stroke-linecap="round"/></g><g transform="rotate(-7 228 154)"><circle cx="165" cy="162" r="11" fill="#F7D3B6" stroke="#3A2C22" stroke-width="5" stroke-linejoin="round" stroke-linecap="round"/><circle cx="291" cy="162" r="11" fill="#F7D3B6" stroke="#3A2C22" stroke-width="5" stroke-linejoin="round" stroke-linecap="round"/><circle cx="228" cy="154" r="68" fill="#F7D3B6" stroke="#3A2C22" stroke-width="6" stroke-linejoin="round" stroke-linecap="round"/><path d="M 159 150 C 158 60, 298 60, 297 150 C 288 116, 248 76, 226 82 C 206 74, 160 118, 159 150 Z" fill="#2B2723" stroke="#3A2C22" stroke-width="6" stroke-linejoin="round" stroke-linecap="round"/><path d="M 224 82 q 16 -12 24 4" fill="#2B2723" stroke="#3A2C22" stroke-width="5" stroke-linejoin="round" stroke-linecap="round"/><ellipse cx="209" cy="154" rx="14.0" ry="15.959999999999999" fill="#FFFFFF" stroke="#3A2C22" stroke-width="3.5"/><ellipse cx="209" cy="156" rx="10.36" ry="11.76" fill="#3A2C22"/><circle cx="204.5" cy="149.5" r="4.48" fill="#FFFFFF"/><circle cx="212.5" cy="159" r="2.3800000000000003" fill="#FFFFFF"/><ellipse cx="247" cy="154" rx="14.0" ry="15.959999999999999" fill="#FFFFFF" stroke="#3A2C22" stroke-width="3.5"/><ellipse cx="247" cy="156" rx="10.36" ry="11.76" fill="#3A2C22"/><circle cx="242.5" cy="149.5" r="4.48" fill="#FFFFFF"/><circle cx="250.5" cy="159" r="2.3800000000000003" fill="#FFFFFF"/><rect x="192" y="140" width="34" height="28" rx="11" fill="#FFFFFF" fill-opacity="0.16" stroke="#2B2723" stroke-width="5" stroke-linejoin="round"/><rect x="230" y="140" width="34" height="28" rx="11" fill="#FFFFFF" fill-opacity="0.16" stroke="#2B2723" stroke-width="5" stroke-linejoin="round"/><path d="M 226 151 L 230 151" stroke="#2B2723" stroke-width="5" stroke-linecap="round"/><path d="M 192 149 l -11 -3" stroke="#2B2723" stroke-width="5" stroke-linecap="round"/><path d="M 264 149 l 11 -3" stroke="#2B2723" stroke-width="5" stroke-linecap="round"/><ellipse cx="190" cy="174" rx="10" ry="6.5" fill="#F58C86" opacity="0.6"/><ellipse cx="266" cy="174" rx="10" ry="6.5" fill="#F58C86" opacity="0.6"/><path d="M 215 182 Q 228 195 241 182" fill="none" stroke="#3A2C22" stroke-width="5" stroke-linejoin="round" stroke-linecap="round"/></g></svg>