<svg xmlns="http://www.w3.org/2000/svg" viewBox="0 0 360 360" width="360" height="360"><g><g transform="translate(0 234) scale(1 0.56) translate(0 -234)"><path d="M 168 228 Q 160 300 160 320" fill="none" stroke="#9BA1A6" stroke-width="22" stroke-linecap="round"/><g transform="rotate(0 160 320)"><ellipse cx="160" cy="320" rx="14" ry="9" fill="#3A2C22" stroke="#3A2C22" stroke-width="4"/></g><path d="M 192 228 Q 206 300 206 320" fill="none" stroke="#9BA1A6" stroke-width="22" stroke-linecap="round"/><g transform="rotate(0 206 320)"><ellipse cx="206" cy="320" rx="14" ry="9" fill="#3A2C22" stroke="#3A2C22" stroke-width="4"/></g></g><path d="M 142 154 C 138 194, 144 226, 152 232 L 208 232 C 216 226, 222 194, 218 154 C 196 142, 164 142, 142 154 Z" fill="#D9CCB3" stroke="#3A2C22" stroke-width="6" stroke-linejoin="round" stroke-linecap="round"/><path d="M 152 172 Q 146 194 150 212" fill="none" stroke="#D9CCB3" stroke-width="22" stroke-linecap="round"/><circle cx="150" cy="212" r="13" fill="#F7D3B6" stroke="#3A2C22" stroke-width="5" stroke-linejoin="round"/><path d="M 208 168 Q 214 156 196 140" fill="none" stroke="#D9CCB3" stroke-width="22" stroke-linecap="round"/><circle cx="196" cy="140" r="13" fill="#F7D3B6" stroke="#3A2C22" stroke-width="5" stroke-linejoin="round"/><g transform="rotate(6 180 100)"><circle cx="127" cy="108" r="11" fill="#F7D3B6" stroke="#3A2C22" stroke-width="5" stroke-linejoin="round" stroke-linecap="round"/><circle cx="233" cy="108" r="11" fill="#F7D3B6" stroke="#3A2C22" stroke-width="5" stroke-linejoin="round" stroke-linecap="round"/><circle cx="180" cy="100" r="58" fill="#F7D3B6" stroke="#3A2C22" stroke-width="6" stroke-linejoin="round" stroke-linecap="round"/><path d="M 121 96 C 120 16, 240 16, 239 96 C 230 62, 200 32, 178 38 C 158 30, 122 64, 121 96 Z" fill="#2B2723" stroke="#3A2C22" stroke-width="6" stroke-linejoin="round" stroke-linecap="round"/><path d="M 176 38 q 16 -12 24 4" fill="#2B2723" stroke="#3A2C22" stroke-width="5" stroke-linejoin="round" stroke-linecap="round"/><circle cx="161" cy="100" r="7" fill="#3A2C22"/><circle cx="159" cy="97.5" r="2.3800000000000003" fill="#FFFFFF"/><circle cx="199" cy="100" r="7" fill="#3A2C22"/><circle cx="197" cy="97.5" r="2.3800000000000003" fill="#FFFFFF"/><rect x="144" y="86" width="34" height="28" rx="11" fill="#FFFFFF" fill-opacity="0.16" stroke="#2B2723" stroke-width="5" stroke-linejoin="round"/><rect x="182" y="86" width="34" height="28" rx="11" fill="#FFFFFF" fill-opacity="0.16" stroke="#2B2723" stroke-width="5" stroke-linejoin="round"/><path d="M 178 97 L 182 97" stroke="#2B2723" stroke-width="5" stroke-linecap="round"/><path d="M 144 95 l -11 -3" stroke="#2B2723" stroke-width="5" stroke-linecap="round"/><path d="M 216 95 l 11 -3" stroke="#2B2723" stroke-width="5" stroke-linecap="round"/><ellipse cx="142" cy="120" rx="10" ry="6.5" fill="#F58C86" opacity="0.6"/><ellipse cx="218" cy="120" rx="10" ry="6.5" fill="#F58C86" opacity="0.6"/><path d="M 169 128 L 191 128" stroke="#3A2C22" stroke-width="5" stroke-linejoin="round" stroke-linecap="round"/></g></g></svg>