<svg xmlns="http://www.w3.org/2000/svg" viewBox="0 0 360 360" width="360" height="360"><g transform="translate(300 90) scale(1.1)"><path d="M 0 -13 Q 2 -2 13 0 Q 2 2 0 13 Q -2 2 -13 0 Q -2 -2 0 -13 Z" fill="#FFD24D" stroke="#3A2C22" stroke-width="2.5" stroke-linejoin="round"/></g><g transform="translate(66 96) scale(1.0)"><path d="M 0 -13 Q 2 -2 13 0 Q 2 2 0 13 Q -2 2 -13 0 Q -2 -2 0 -13 Z" fill="#FFD24D" stroke="#3A2C22" stroke-width="2.5" stroke-linejoin="round"/></g><g><path d="M 95 222 C 83 246, 85 294, 99 308 C 107 320, 155 320, 163 308 C 177 294, 179 246, 167 222 C 153 208, 109 208, 95 222 Z" fill="#F1D3A2" stroke="#3A2C22" stroke-width="6" stroke-linejoin="round" stroke-linecap="round"/><path d="M 103 304 Q 131 316 159 304" fill="none" stroke="#E0BA84" stroke-width="6" stroke-linecap="round"/></g><g><path d="M 193 222 C 181 246, 183 294, 197 308 C 205 320, 253 320, 261 308 C 275 294, 277 246, 265 222 C 251 208, 207 208, 193 222 Z" fill="#CFD5DC" stroke="#3A2C22" stroke-width="6" stroke-linejoin="round" stroke-linecap="round"/><path d="M 201 304 Q 229 316 257 304" fill="none" stroke="#B7BEC8" stroke-width="6" stroke-linecap="round"/></g><path d="M 89 234 Q 71 256 79 290" fill="none" stroke="#F1D3A2" stroke-width="20" stroke-linecap="round"/><circle cx="79" cy="290" r="10" fill="#F1D3A2" stroke="#3A2C22" stroke-width="5" stroke-linejoin="round"/><path d="M 271 234 Q 289 256 281 290" fill="none" stroke="#CFD5DC" stroke-width="20" stroke-linecap="round"/><circle cx="281" cy="290" r="10" fill="#CFD5DC" stroke="#3A2C22" stroke-width="5" stroke-linejoin="round"/><path d="M 169 224 Q 150 176 154 98" fill="none" stroke="#F1D3A2" stroke-width="19" stroke-linecap="round"/><circle cx="154" cy="92" r="15" fill="#F1D3A2" stroke="#3A2C22" stroke-width="5"/><path d="M 148 84 L 160 84" stroke="#3A2C22" stroke-width="2.5" stroke-linecap="round" opacity="0.35"/><path d="M 148 92 L 160 92" stroke="#3A2C22" stroke-width="2.5" stroke-linecap="round" opacity="0.35"/><path d="M 148 100 L 160 100" stroke="#3A2C22" stroke-width="2.5" stroke-linecap="round" opacity="0.35"/><path d="M 191 224 Q 210 176 206 98" fill="none" stroke="#CFD5DC" stroke-width="19" stroke-linecap="round"/><circle cx="206" cy="92" r="15" fill="#CFD5DC" stroke="#3A2C22" stroke-width="5"/><path d="M 200 84 L 212 84" stroke="#3A2C22" stroke-width="2.5" stroke-linecap="round" opacity="0.35"/><path d="M 200 92 L 212 92" stroke="#3A2C22" stroke-width="2.5" stroke-linecap="round" opacity="0.35"/><path d="M 200 100 L 212 100" stroke="#3A2C22" stroke-width="2.5" stroke-linecap="round" opacity="0.35"/><g transform="rotate(8 131 156)"><path d="M 69 104 Q 39 92 37 174 Q 39 212 65 202 Q 79 170 69 104 Z" fill="#C79154" stroke="#3A2C22" stroke-width="6" stroke-linejoin="round" stroke-linecap="round"/><path d="M 193 104 Q 223 92 225 174 Q 223 212 197 202 Q 183 170 193 104 Z" fill="#C79154" stroke="#3A2C22" stroke-width="6" stroke-linejoin="round" stroke-linecap="round"/><circle cx="131" cy="156" r="72" fill="#F1D3A2" stroke="#3A2C22" stroke-width="6" stroke-linejoin="round" stroke-linecap="round"/><ellipse cx="131" cy="180" rx="37.4" ry="28.8" fill="#FFF3E1" stroke="#3A2C22" stroke-width="4" stroke-linejoin="round" stroke-linecap="round"/><ellipse cx="131" cy="162" rx="10" ry="8" fill="#3A2C22"/><path d="M 131 169 L 131 178" stroke="#3A2C22" stroke-width="3.5" stroke-linecap="round"/><ellipse cx="112" cy="152" rx="14.0" ry="15.959999999999999" fill="#FFFFFF" stroke="#3A2C22" stroke-width="3.5"/><ellipse cx="112" cy="154" rx="10.36" ry="11.76" fill="#3A2C22"/><circle cx="107.5" cy="147.5" r="4.48" fill="#FFFFFF"/><circle cx="115.5" cy="157" r="2.3800000000000003" fill="#FFFFFF"/><ellipse cx="150" cy="152" rx="14.0" ry="15.959999999999999" fill="#FFFFFF" stroke="#3A2C22" stroke-width="3.5"/><ellipse cx="150" cy="154" rx="10.36" ry="11.76" fill="#3A2C22"/><circle cx="145.5" cy="147.5" r="4.48" fill="#FFFFFF"/><circle cx="153.5" cy="157" r="2.3800000000000003" fill="#FFFFFF"/><ellipse cx="90.67999999999999" cy="172" rx="10" ry="6.5" fill="#F58C86" opacity="0.6"/><ellipse cx="171.32" cy="172" rx="10" ry="6.5" fill="#F58C86" opacity="0.6"/><path d="M 118 178 Q 131 197 144 178 Z" fill="#B83B57" stroke="#3A2C22" stroke-width="4" stroke-linejoin="round" stroke-linecap="round"/></g><g transform="rotate(-8 229 156)"><path d="M 195 100 L 167 54 L 143 86 Z" fill="#CFD5DC" stroke="#3A2C22" stroke-width="6" stroke-linejoin="round" stroke-linecap="round"/><path d="M 181 92 L 167 70 L 155 84 Z" fill="#F4B5C6"/><path d="M 263 100 L 291 54 L 315 86 Z" fill="#CFD5DC" stroke="#3A2C22" stroke-width="6" stroke-linejoin="round" stroke-linecap="round"/><path d="M 277 92 L 291 70 L 303 84 Z" fill="#F4B5C6"/><circle cx="229" cy="156" r="72" fill="#CFD5DC" stroke="#3A2C22" stroke-width="6" stroke-linejoin="round" stroke-linecap="round"/><path d="M 220 162 L 238 162 L 229 171 Z" fill="#E28AA2" stroke="#3A2C22" stroke-width="3" stroke-linejoin="round" stroke-linecap="round"/><path d="M 213 164 q -20 -3.0 -32 -0.6" fill="none" stroke="#3A2C22" stroke-width="2.5" stroke-linecap="round" opacity="0.7"/><path d="M 213 172 q -20 1.0 -32 1.7999999999999998" fill="none" stroke="#3A2C22" stroke-width="2.5" stroke-linecap="round" opacity="0.7"/><path d="M 245 164 q 20 -3.0 32 -0.6" fill="none" stroke="#3A2C22" stroke-width="2.5" stroke-linecap="round" opacity="0.7"/><path d="M 245 172 q 20 1.0 32 1.7999999999999998" fill="none" stroke="#3A2C22" stroke-width="2.5" stroke-linecap="round" opacity="0.7"/><ellipse cx="210" cy="152" rx="14.0" ry="15.959999999999999" fill="#FFFFFF" stroke="#3A2C22" stroke-width="3.5"/><ellipse cx="210" cy="154" rx="10.36" ry="11.76" fill="#3A2C22"/><circle cx="205.5" cy="147.5" r="4.48" fill="#FFFFFF"/><circle cx="213.5" cy="157" r="2.3800000000000003" fill="#FFFFFF"/><ellipse cx="248" cy="152" rx="14.0" ry="15.959999999999999" fill="#FFFFFF" stroke="#3A2C22" stroke-width="3.5"/><ellipse cx="248" cy="154" rx="10.36" ry="11.76" fill="#3A2C22"/><circle cx="243.5" cy="147.5" r="4.48" fill="#FFFFFF"/><circle cx="251.5" cy="157" r="2.3800000000000003" fill="#FFFFFF"/><ellipse cx="188.68" cy="172" rx="10" ry="6.5" fill="#F58C86" opacity="0.6"/><ellipse cx="269.32" cy="172" rx="10" ry="6.5" fill="#F58C86" opacity="0.6"/><path d="M 216 174 Q 229 193 242 174 Z" fill="#B83B57" stroke="#3A2C22" stroke-width="4" stroke-linejoin="round" stroke-linecap="round"/></g></svg>