<svg xmlns="http://www.w3.org/2000/svg" viewBox="0 0 360 360" width="360" height="360"><g transform="translate(300 80) scale(1.0)"><path d="M 0 -13 Q 2 -2 13 0 Q 2 2 0 13 Q -2 2 -13 0 Q -2 -2 0 -13 Z" fill="#FFD24D" stroke="#3A2C22" stroke-width="2.5" stroke-linejoin="round"/></g><g transform="translate(60 84) scale(0.9)"><path d="M 0 -13 Q 2 -2 13 0 Q 2 2 0 13 Q -2 2 -13 0 Q -2 -2 0 -13 Z" fill="#FFD24D" stroke="#3A2C22" stroke-width="2.5" stroke-linejoin="round"/></g><g transform="translate(180 60) scale(1.0) rotate(0)"><path d="M 0 6 C -10 -8 -28 2 -14 16 L 0 30 L 14 16 C 28 2 10 -8 0 6 Z" fill="#FF89A0" stroke="#3A2C22" stroke-width="4" stroke-linejoin="round" stroke-linecap="round"/></g><g><path d="M 98 216 C 86 240, 88 288, 102 302 C 110 314, 158 314, 166 302 C 180 288, 182 240, 170 216 C 156 202, 112 202, 98 216 Z" fill="#F1D3A2" stroke="#3A2C22" stroke-width="6" stroke-linejoin="round" stroke-linecap="round"/><path d="M 106 298 Q 134 310 162 298" fill="none" stroke="#E0BA84" stroke-width="6" stroke-linecap="round"/></g><g><path d="M 190 216 C 178 240, 180 288, 194 302 C 202 314, 250 314, 258 302 C 272 288, 274 240, 262 216 C 248 202, 204 202, 190 216 Z" fill="#CFD5DC" stroke="#3A2C22" stroke-width="6" stroke-linejoin="round" stroke-linecap="round"/><path d="M 198 298 Q 226 310 254 298" fill="none" stroke="#B7BEC8" stroke-width="6" stroke-linecap="round"/></g><path d="M 92 228 Q 74 250 82 284" fill="none" stroke="#F1D3A2" stroke-width="20" stroke-linecap="round"/><circle cx="82" cy="284" r="10" fill="#F1D3A2" stroke="#3A2C22" stroke-width="5" stroke-linejoin="round"/><path d="M 268 228 Q 286 250 278 284" fill="none" stroke="#CFD5DC" stroke-width="20" stroke-linecap="round"/><circle cx="278" cy="284" r="10" fill="#CFD5DC" stroke="#3A2C22" stroke-width="5" stroke-linejoin="round"/><path d="M 172 222 Q 156 226 166 240" fill="none" stroke="#F1D3A2" stroke-width="20" stroke-linecap="round"/><circle cx="166" cy="240" r="10" fill="#F1D3A2" stroke="#3A2C22" stroke-width="5" stroke-linejoin="round"/><path d="M 188 222 Q 204 226 194 240" fill="none" stroke="#CFD5DC" stroke-width="20" stroke-linecap="round"/><circle cx="194" cy="240" r="10" fill="#CFD5DC" stroke="#3A2C22" stroke-width="5" stroke-linejoin="round"/><g transform="rotate(8 134 150)"><path d="M 72 98 Q 42 86 40 168 Q 42 206 68 196 Q 82 164 72 98 Z" fill="#C79154" stroke="#3A2C22" stroke-width="6" stroke-linejoin="round" stroke-linecap="round"/><path d="M 196 98 Q 226 86 228 168 Q 226 206 200 196 Q 186 164 196 98 Z" fill="#C79154" stroke="#3A2C22" stroke-width="6" stroke-linejoin="round" stroke-linecap="round"/><circle cx="134" cy="150" r="72" fill="#F1D3A2" stroke="#3A2C22" stroke-width="6" stroke-linejoin="round" stroke-linecap="round"/><ellipse cx="134" cy="174" rx="37.4" ry="28.8" fill="#FFF3E1" stroke="#3A2C22" stroke-width="4" stroke-linejoin="round" stroke-linecap="round"/><ellipse cx="134" cy="156" rx="10" ry="8" fill="#3A2C22"/><path d="M 134 163 L 134 172" stroke="#3A2C22" stroke-width="3.5" stroke-linecap="round"/><path d="M 104 150 Q 115 135 126 150" fill="none" stroke="#3A2C22" stroke-width="6" stroke-linejoin="round" stroke-linecap="round"/><path d="M 142 150 Q 153 135 164 150" fill="none" stroke="#3A2C22" stroke-width="6" stroke-linejoin="round" stroke-linecap="round"/><ellipse cx="93.67999999999999" cy="166" rx="10" ry="6.5" fill="#F58C86" opacity="0.6"/><ellipse cx="174.32" cy="166" rx="10" ry="6.5" fill="#F58C86" opacity="0.6"/><path d="M 121 174 Q 127.5 183 134 174 Q 140.5 183 147 174" fill="none" stroke="#3A2C22" stroke-width="5" stroke-linejoin="round" stroke-linecap="round"/></g><g transform="rotate(-8 226 150)"><path d="M 192 94 L 164 48 L 140 80 Z" fill="#CFD5DC" stroke="#3A2C22" stroke-width="6" stroke-linejoin="round" stroke-linecap="round"/><path d="M 178 86 L 164 64 L 152 78 Z" fill="#F4B5C6"/><path d="M 260 94 L 288 48 L 312 80 Z" fill="#CFD5DC" stroke="#3A2C22" stroke-width="6" stroke-linejoin="round" stroke-linecap="round"/><path d="M 274 86 L 288 64 L 300 78 Z" fill="#F4B5C6"/><circle cx="226" cy="150" r="72" fill="#CFD5DC" stroke="#3A2C22" stroke-width="6" stroke-linejoin="round" stroke-linecap="round"/><path d="M 217 156 L 235 156 L 226 165 Z" fill="#E28AA2" stroke="#3A2C22" stroke-width="3" stroke-linejoin="round" stroke-linecap="round"/><path d="M 210 158 q -20 -3.0 -32 -0.6" fill="none" stroke="#3A2C22" stroke-width="2.5" stroke-linecap="round" opacity="0.7"/><path d="M 210 166 q -20 1.0 -32 1.7999999999999998" fill="none" stroke="#3A2C22" stroke-width="2.5" stroke-linecap="round" opacity="0.7"/><path d="M 242 158 q 20 -3.0 32 -0.6" fill="none" stroke="#3A2C22" stroke-width="2.5" stroke-linecap="round" opacity="0.7"/><path d="M 242 166 q 20 1.0 32 1.7999999999999998" fill="none" stroke="#3A2C22" stroke-width="2.5" stroke-linecap="round" opacity="0.7"/><path d="M 196 150 Q 207 135 218 150" fill="none" stroke="#3A2C22" stroke-width="6" stroke-linejoin="round" stroke-linecap="round"/><path d="M 234 150 Q 245 135 256 150" fill="none" stroke="#3A2C22" stroke-width="6" stroke-linejoin="round" stroke-linecap="round"/><ellipse cx="185.68" cy="166" rx="10" ry="6.5" fill="#F58C86" opacity="0.6"/><ellipse cx="266.32" cy="166" rx="10" ry="6.5" fill="#F58C86" opacity="0.6"/><path d="M 213 170 Q 219.5 179 226 170 Q 232.5 179 239 170" fill="none" stroke="#3A2C22" stroke-width="5" stroke-linejoin="round" stroke-linecap="round"/></g><g transform="translate(180 250) scale(0.9)"><path d="M -34 0 Q 0 44 34 0 Z" fill="#EDE6DA" stroke="#3A2C22" stroke-width="5" stroke-linejoin="round"/><ellipse cx="0" cy="0" rx="34" ry="9" fill="#F6D9A0" stroke="#3A2C22" stroke-width="4.5"/><path d="M -10 -14 q 6 -8 0 -16" fill="none" stroke="#C9C2B8" stroke-width="3.5" stroke-linecap="round"/><path d="M 2 -14 q 6 -8 0 -16" fill="none" stroke="#C9C2B8" stroke-width="3.5" stroke-linecap="round"/><path d="M 12 -14 q 6 -8 0 -16" fill="none" stroke="#C9C2B8" stroke-width="3.5" stroke-linecap="round"/></g></svg>