<svg xmlns="http://www.w3.org/2000/svg" viewBox="0 0 360 360" width="360" height="360"><g transform="translate(180 58) scale(1.5) rotate(0)"><path d="M 0 6 C -10 -8 -28 2 -14 16 L 0 30 L 14 16 C 28 2 10 -8 0 6 Z" fill="#FF5C79" stroke="#3A2C22" stroke-width="4" stroke-linejoin="round" stroke-linecap="round"/></g><g><path d="M 101 218 C 89 242, 91 290, 105 304 C 113 316, 161 316, 169 304 C 183 290, 185 242, 173 218 C 159 204, 115 204, 101 218 Z" fill="#F1D3A2" stroke="#3A2C22" stroke-width="6" stroke-linejoin="round" stroke-linecap="round"/><path d="M 109 300 Q 137 312 165 300" fill="none" stroke="#E0BA84" stroke-width="6" stroke-linecap="round"/></g><g><path d="M 187 218 C 175 242, 177 290, 191 304 C 199 316, 247 316, 255 304 C 269 290, 271 242, 259 218 C 245 204, 201 204, 187 218 Z" fill="#CFD5DC" stroke="#3A2C22" stroke-width="6" stroke-linejoin="round" stroke-linecap="round"/><path d="M 195 300 Q 223 312 251 300" fill="none" stroke="#B7BEC8" stroke-width="6" stroke-linecap="round"/></g><path d="M 95 230 Q 77 252 85 286" fill="none" stroke="#F1D3A2" stroke-width="20" stroke-linecap="round"/><circle cx="85" cy="286" r="10" fill="#F1D3A2" stroke="#3A2C22" stroke-width="5" stroke-linejoin="round"/><path d="M 265 230 Q 283 252 275 286" fill="none" stroke="#CFD5DC" stroke-width="20" stroke-linecap="round"/><circle cx="275" cy="286" r="10" fill="#CFD5DC" stroke="#3A2C22" stroke-width="5" stroke-linejoin="round"/><path d="M 177 222 Q 180 186 253 210" fill="none" stroke="#F1D3A2" stroke-width="20" stroke-linecap="round"/><circle cx="253" cy="210" r="10" fill="#F1D3A2" stroke="#3A2C22" stroke-width="5" stroke-linejoin="round"/><path d="M 183 222 Q 180 198 107 218" fill="none" stroke="#CFD5DC" stroke-width="20" stroke-linecap="round"/><circle cx="107" cy="218" r="10" fill="#CFD5DC" stroke="#3A2C22" stroke-width="5" stroke-linejoin="round"/><g transform="rotate(16 137 152)"><path d="M 75 100 Q 45 88 43 170 Q 45 208 71 198 Q 85 166 75 100 Z" fill="#C79154" stroke="#3A2C22" stroke-width="6" stroke-linejoin="round" stroke-linecap="round"/><path d="M 199 100 Q 229 88 231 170 Q 229 208 203 198 Q 189 166 199 100 Z" fill="#C79154" stroke="#3A2C22" stroke-width="6" stroke-linejoin="round" stroke-linecap="round"/><circle cx="137" cy="152" r="72" fill="#F1D3A2" stroke="#3A2C22" stroke-width="6" stroke-linejoin="round" stroke-linecap="round"/><ellipse cx="137" cy="176" rx="37.4" ry="28.8" fill="#FFF3E1" stroke="#3A2C22" stroke-width="4" stroke-linejoin="round" stroke-linecap="round"/><ellipse cx="137" cy="158" rx="10" ry="8" fill="#3A2C22"/><path d="M 137 165 L 137 174" stroke="#3A2C22" stroke-width="3.5" stroke-linecap="round"/><path d="M 107 152 Q 118 137 129 152" fill="none" stroke="#3A2C22" stroke-width="6" stroke-linejoin="round" stroke-linecap="round"/><path d="M 145 152 Q 156 137 167 152" fill="none" stroke="#3A2C22" stroke-width="6" stroke-linejoin="round" stroke-linecap="round"/><ellipse cx="96.67999999999999" cy="168" rx="10" ry="6.5" fill="#F58C86" opacity="0.6"/><ellipse cx="177.32" cy="168" rx="10" ry="6.5" fill="#F58C86" opacity="0.6"/><ellipse cx="137" cy="179" rx="6.5" ry="8.06" fill="#B83B57" stroke="#3A2C22" stroke-width="4" stroke-linejoin="round" stroke-linecap="round"/></g><g transform="rotate(-16 223 152)"><path d="M 189 96 L 161 50 L 137 82 Z" fill="#CFD5DC" stroke="#3A2C22" stroke-width="6" stroke-linejoin="round" stroke-linecap="round"/><path d="M 175 88 L 161 66 L 149 80 Z" fill="#F4B5C6"/><path d="M 257 96 L 285 50 L 309 82 Z" fill="#CFD5DC" stroke="#3A2C22" stroke-width="6" stroke-linejoin="round" stroke-linecap="round"/><path d="M 271 88 L 285 66 L 297 80 Z" fill="#F4B5C6"/><circle cx="223" cy="152" r="72" fill="#CFD5DC" stroke="#3A2C22" stroke-width="6" stroke-linejoin="round" stroke-linecap="round"/><path d="M 214 158 L 232 158 L 223 167 Z" fill="#E28AA2" stroke="#3A2C22" stroke-width="3" stroke-linejoin="round" stroke-linecap="round"/><path d="M 207 160 q -20 -3.0 -32 -0.6" fill="none" stroke="#3A2C22" stroke-width="2.5" stroke-linecap="round" opacity="0.7"/><path d="M 207 168 q -20 1.0 -32 1.7999999999999998" fill="none" stroke="#3A2C22" stroke-width="2.5" stroke-linecap="round" opacity="0.7"/><path d="M 239 160 q 20 -3.0 32 -0.6" fill="none" stroke="#3A2C22" stroke-width="2.5" stroke-linecap="round" opacity="0.7"/><path d="M 239 168 q 20 1.0 32 1.7999999999999998" fill="none" stroke="#3A2C22" stroke-width="2.5" stroke-linecap="round" opacity="0.7"/><path d="M 193 152 Q 204 137 215 152" fill="none" stroke="#3A2C22" stroke-width="6" stroke-linejoin="round" stroke-linecap="round"/><path d="M 231 152 Q 242 137 253 152" fill="none" stroke="#3A2C22" stroke-width="6" stroke-linejoin="round" stroke-linecap="round"/><ellipse cx="182.68" cy="168" rx="10" ry="6.5" fill="#F58C86" opacity="0.6"/><ellipse cx="263.32" cy="168" rx="10" ry="6.5" fill="#F58C86" opacity="0.6"/><ellipse cx="223" cy="175" rx="6.5" ry="8.06" fill="#B83B57" stroke="#3A2C22" stroke-width="4" stroke-linejoin="round" stroke-linecap="round"/></g></svg>