<svg xmlns="http://www.w3.org/2000/svg" viewBox="0 0 360 360" width="360" height="360"><g transform="translate(180 58) scale(1.7) rotate(0)"><path d="M 0 6 C -10 -8 -28 2 -14 16 L 0 30 L 14 16 C 28 2 10 -8 0 6 Z" fill="#FF5C79" stroke="#3A2C22" stroke-width="4" stroke-linejoin="round" stroke-linecap="round"/></g><g transform="translate(300 120) scale(0.8) rotate(10)"><path d="M 0 6 C -10 -8 -28 2 -14 16 L 0 30 L 14 16 C 28 2 10 -8 0 6 Z" fill="#FF89A0" stroke="#3A2C22" stroke-width="4" stroke-linejoin="round" stroke-linecap="round"/></g><g transform="translate(64 120) scale(0.8) rotate(-10)"><path d="M 0 6 C -10 -8 -28 2 -14 16 L 0 30 L 14 16 C 28 2 10 -8 0 6 Z" fill="#FF89A0" stroke="#3A2C22" stroke-width="4" stroke-linejoin="round" stroke-linecap="round"/></g><g><path d="M 96 220 C 84 244, 86 292, 100 306 C 108 318, 156 318, 164 306 C 178 292, 180 244, 168 220 C 154 206, 110 206, 96 220 Z" fill="#F1D3A2" stroke="#3A2C22" stroke-width="6" stroke-linejoin="round" stroke-linecap="round"/><path d="M 104 302 Q 132 314 160 302" fill="none" stroke="#E0BA84" stroke-width="6" stroke-linecap="round"/></g><g><path d="M 192 220 C 180 244, 182 292, 196 306 C 204 318, 252 318, 260 306 C 274 292, 276 244, 264 220 C 250 206, 206 206, 192 220 Z" fill="#CFD5DC" stroke="#3A2C22" stroke-width="6" stroke-linejoin="round" stroke-linecap="round"/><path d="M 200 302 Q 228 314 256 302" fill="none" stroke="#B7BEC8" stroke-width="6" stroke-linecap="round"/></g><path d="M 90 232 Q 72 254 80 288" fill="none" stroke="#F1D3A2" stroke-width="20" stroke-linecap="round"/><circle cx="80" cy="288" r="10" fill="#F1D3A2" stroke="#3A2C22" stroke-width="5" stroke-linejoin="round"/><path d="M 270 232 Q 288 254 280 288" fill="none" stroke="#CFD5DC" stroke-width="20" stroke-linecap="round"/><circle cx="280" cy="288" r="10" fill="#CFD5DC" stroke="#3A2C22" stroke-width="5" stroke-linejoin="round"/><path d="M 170 222 Q 156 208 168 200" fill="none" stroke="#F1D3A2" stroke-width="19" stroke-linecap="round"/><path d="M 190 222 Q 204 208 192 200" fill="none" stroke="#CFD5DC" stroke-width="19" stroke-linecap="round"/><g transform="translate(180 194) scale(1.15) rotate(0)"><path d="M 0 6 C -10 -8 -28 2 -14 16 L 0 30 L 14 16 C 28 2 10 -8 0 6 Z" fill="#FF5C79" stroke="#3A2C22" stroke-width="4" stroke-linejoin="round" stroke-linecap="round"/></g><g transform="rotate(8 132 154)"><path d="M 70 102 Q 40 90 38 172 Q 40 210 66 200 Q 80 168 70 102 Z" fill="#C79154" stroke="#3A2C22" stroke-width="6" stroke-linejoin="round" stroke-linecap="round"/><path d="M 194 102 Q 224 90 226 172 Q 224 210 198 200 Q 184 168 194 102 Z" fill="#C79154" stroke="#3A2C22" stroke-width="6" stroke-linejoin="round" stroke-linecap="round"/><circle cx="132" cy="154" r="72" fill="#F1D3A2" stroke="#3A2C22" stroke-width="6" stroke-linejoin="round" stroke-linecap="round"/><ellipse cx="132" cy="178" rx="37.4" ry="28.8" fill="#FFF3E1" stroke="#3A2C22" stroke-width="4" stroke-linejoin="round" stroke-linecap="round"/><ellipse cx="132" cy="160" rx="10" ry="8" fill="#3A2C22"/><path d="M 132 167 L 132 176" stroke="#3A2C22" stroke-width="3.5" stroke-linecap="round"/><ellipse cx="113" cy="150" rx="14.0" ry="15.959999999999999" fill="#FFFFFF" stroke="#3A2C22" stroke-width="3.5"/><ellipse cx="113" cy="152" rx="10.36" ry="11.76" fill="#3A2C22"/><circle cx="108.5" cy="145.5" r="4.48" fill="#FFFFFF"/><circle cx="116.5" cy="155" r="2.3800000000000003" fill="#FFFFFF"/><ellipse cx="151" cy="150" rx="14.0" ry="15.959999999999999" fill="#FFFFFF" stroke="#3A2C22" stroke-width="3.5"/><ellipse cx="151" cy="152" rx="10.36" ry="11.76" fill="#3A2C22"/><circle cx="146.5" cy="145.5" r="4.48" fill="#FFFFFF"/><circle cx="154.5" cy="155" r="2.3800000000000003" fill="#FFFFFF"/><ellipse cx="91.67999999999999" cy="170" rx="10" ry="6.5" fill="#F58C86" opacity="0.6"/><ellipse cx="172.32" cy="170" rx="10" ry="6.5" fill="#F58C86" opacity="0.6"/><path d="M 119 178 Q 125.5 187 132 178 Q 138.5 187 145 178" fill="none" stroke="#3A2C22" stroke-width="5" stroke-linejoin="round" stroke-linecap="round"/></g><g transform="rotate(-8 228 154)"><path d="M 194 98 L 166 52 L 142 84 Z" fill="#CFD5DC" stroke="#3A2C22" stroke-width="6" stroke-linejoin="round" stroke-linecap="round"/><path d="M 180 90 L 166 68 L 154 82 Z" fill="#F4B5C6"/><path d="M 262 98 L 290 52 L 314 84 Z" fill="#CFD5DC" stroke="#3A2C22" stroke-width="6" stroke-linejoin="round" stroke-linecap="round"/><path d="M 276 90 L 290 68 L 302 82 Z" fill="#F4B5C6"/><circle cx="228" cy="154" r="72" fill="#CFD5DC" stroke="#3A2C22" stroke-width="6" stroke-linejoin="round" stroke-linecap="round"/><path d="M 219 160 L 237 160 L 228 169 Z" fill="#E28AA2" stroke="#3A2C22" stroke-width="3" stroke-linejoin="round" stroke-linecap="round"/><path d="M 212 162 q -20 -3.0 -32 -0.6" fill="none" stroke="#3A2C22" stroke-width="2.5" stroke-linecap="round" opacity="0.7"/><path d="M 212 170 q -20 1.0 -32 1.7999999999999998" fill="none" stroke="#3A2C22" stroke-width="2.5" stroke-linecap="round" opacity="0.7"/><path d="M 244 162 q 20 -3.0 32 -0.6" fill="none" stroke="#3A2C22" stroke-width="2.5" stroke-linecap="round" opacity="0.7"/><path d="M 244 170 q 20 1.0 32 1.7999999999999998" fill="none" stroke="#3A2C22" stroke-width="2.5" stroke-linecap="round" opacity="0.7"/><ellipse cx="209" cy="150" rx="14.0" ry="15.959999999999999" fill="#FFFFFF" stroke="#3A2C22" stroke-width="3.5"/><ellipse cx="209" cy="152" rx="10.36" ry="11.76" fill="#3A2C22"/><circle cx="204.5" cy="145.5" r="4.48" fill="#FFFFFF"/><circle cx="212.5" cy="155" r="2.3800000000000003" fill="#FFFFFF"/><ellipse cx="247" cy="150" rx="14.0" ry="15.959999999999999" fill="#FFFFFF" stroke="#3A2C22" stroke-width="3.5"/><ellipse cx="247" cy="152" rx="10.36" ry="11.76" fill="#3A2C22"/><circle cx="242.5" cy="145.5" r="4.48" fill="#FFFFFF"/><circle cx="250.5" cy="155" r="2.3800000000000003" fill="#FFFFFF"/><ellipse cx="187.68" cy="170" rx="10" ry="6.5" fill="#F58C86" opacity="0.6"/><ellipse cx="268.32" cy="170" rx="10" ry="6.5" fill="#F58C86" opacity="0.6"/><path d="M 215 174 Q 221.5 183 228 174 Q 234.5 183 241 174" fill="none" stroke="#3A2C22" stroke-width="5" stroke-linejoin="round" stroke-linecap="round"/></g></svg>