<svg xmlns="http://www.w3.org/2000/svg" viewBox="0 0 360 360" width="360" height="360"><path d="M 112 150 l -44 0" stroke="#3A2C22" stroke-width="5" stroke-linecap="round" opacity="0.45"/><path d="M 112 163 l -44 0" stroke="#3A2C22" stroke-width="5" stroke-linecap="round" opacity="0.45"/><path d="M 112 176 l -44 0" stroke="#3A2C22" stroke-width="5" stroke-linecap="round" opacity="0.45"/><g transform="rotate(-7 180 205)"><g transform="translate(0 234) scale(1 0.56) translate(0 -234)"><path d="M 168 250 Q 150 300 138 316" fill="none" stroke="#F7D3B6" stroke-width="22" stroke-linecap="round"/><g transform="rotate(-22 138 316)"><ellipse cx="138" cy="316" rx="14" ry="9" fill="#3A2C22" stroke="#3A2C22" stroke-width="4"/></g><path d="M 192 250 Q 206 266 214 300" fill="none" stroke="#F7D3B6" stroke-width="22" stroke-linecap="round"/><g transform="rotate(18 214 300)"><ellipse cx="214" cy="300" rx="14" ry="9" fill="#3A2C22" stroke="#3A2C22" stroke-width="4"/></g></g><path d="M 142 154 C 140 184, 134 228, 124 250 L 236 250 C 226 228, 220 184, 218 154 C 196 142, 164 142, 142 154 Z" fill="#343039" stroke="#3A2C22" stroke-width="6" stroke-linejoin="round" stroke-linecap="round"/><path d="M 152 166 Q 124 162 126 188" fill="none" stroke="#343039" stroke-width="22" stroke-linecap="round"/><circle cx="126" cy="188" r="13" fill="#F7D3B6" stroke="#3A2C22" stroke-width="5" stroke-linejoin="round"/><path d="M 208 164 Q 230 150 236 150" fill="none" stroke="#343039" stroke-width="22" stroke-linecap="round"/><circle cx="236" cy="150" r="13" fill="#F7D3B6" stroke="#3A2C22" stroke-width="5" stroke-linejoin="round"/><g transform="rotate(-4 180 100)"><path d="M 114 98 C 110 22, 250 22, 246 98 L 247 180 Q 244 198 224 192 Q 180 188 136 192 Q 116 198 113 180 Z" fill="#1F1B1A" stroke="#3A2C22" stroke-width="6" stroke-linejoin="round" stroke-linecap="round"/><circle cx="127" cy="108" r="11" fill="#F7D3B6" stroke="#3A2C22" stroke-width="5" stroke-linejoin="round" stroke-linecap="round"/><circle cx="233" cy="108" r="11" fill="#F7D3B6" stroke="#3A2C22" stroke-width="5" stroke-linejoin="round" stroke-linecap="round"/><circle cx="180" cy="100" r="58" fill="#F7D3B6" stroke="#3A2C22" stroke-width="6" stroke-linejoin="round" stroke-linecap="round"/><path d="M 124 78 C 123 40, 237 40, 236 78 Q 222 92, 208 86 Q 180 98, 152 86 Q 138 92, 124 78 Z" fill="#1F1B1A" stroke="#3A2C22" stroke-width="6" stroke-linejoin="round" stroke-linecap="round"/><ellipse cx="161" cy="100" rx="14.0" ry="15.959999999999999" fill="#FFFFFF" stroke="#3A2C22" stroke-width="3.5"/><ellipse cx="161" cy="102" rx="10.36" ry="11.76" fill="#3A2C22"/><circle cx="156.5" cy="95.5" r="4.48" fill="#FFFFFF"/><circle cx="164.5" cy="105" r="2.3800000000000003" fill="#FFFFFF"/><ellipse cx="199" cy="100" rx="14.0" ry="15.959999999999999" fill="#FFFFFF" stroke="#3A2C22" stroke-width="3.5"/><ellipse cx="199" cy="102" rx="10.36" ry="11.76" fill="#3A2C22"/><circle cx="194.5" cy="95.5" r="4.48" fill="#FFFFFF"/><circle cx="202.5" cy="105" r="2.3800000000000003" fill="#FFFFFF"/><ellipse cx="142" cy="120" rx="10" ry="6.5" fill="#F58C86" opacity="0.6"/><ellipse cx="218" cy="120" rx="10" ry="6.5" fill="#F58C86" opacity="0.6"/><path d="M 167 126 Q 180 145 193 126 Z" fill="#B83B57" stroke="#3A2C22" stroke-width="4" stroke-linejoin="round" stroke-linecap="round"/></g></g></svg>