<svg xmlns="http://www.w3.org/2000/svg" viewBox="0 0 360 360" width="360" height="360"><g transform="translate(110 96) scale(1.0)"><path d="M 0 -13 Q 2 -2 13 0 Q 2 2 0 13 Q -2 2 -13 0 Q -2 -2 0 -13 Z" fill="#FFD24D" stroke="#3A2C22" stroke-width="2.5" stroke-linejoin="round"/></g><g transform="translate(250 92) scale(1.0)"><path d="M 0 -13 Q 2 -2 13 0 Q 2 2 0 13 Q -2 2 -13 0 Q -2 -2 0 -13 Z" fill="#FFD24D" stroke="#3A2C22" stroke-width="2.5" stroke-linejoin="round"/></g><g><g transform="translate(0 234) scale(1 0.46) translate(0 -234)"><path d="M 166 250 Q 150 288 150 300" fill="none" stroke="#F7D3B6" stroke-width="15" stroke-linecap="round"/><g transform="rotate(-10 150 300)"><ellipse cx="150" cy="300" rx="11" ry="7" fill="#3A2C22" stroke="#3A2C22" stroke-width="4"/></g><path d="M 194 250 Q 210 288 210 300" fill="none" stroke="#F7D3B6" stroke-width="15" stroke-linecap="round"/><g transform="rotate(10 210 300)"><ellipse cx="210" cy="300" rx="11" ry="7" fill="#3A2C22" stroke="#3A2C22" stroke-width="4"/></g></g><path d="M 148 154 C 146 184, 140 228, 130 250 L 230 250 C 220 228, 214 184, 212 154 C 196 142, 164 142, 148 154 Z" fill="#FF8FB0" stroke="#3A2C22" stroke-width="6" stroke-linejoin="round" stroke-linecap="round"/><g transform="rotate(0 180 104)"><path d="M 108 102 C 104 20, 256 20, 252 102 L 253 190 Q 250 208 230 202 Q 180 198 130 202 Q 110 208 107 190 Z" fill="#1F1B1A" stroke="#3A2C22" stroke-width="6" stroke-linejoin="round" stroke-linecap="round"/><circle cx="121" cy="112" r="11" fill="#F7D3B6" stroke="#3A2C22" stroke-width="5" stroke-linejoin="round" stroke-linecap="round"/><circle cx="239" cy="112" r="11" fill="#F7D3B6" stroke="#3A2C22" stroke-width="5" stroke-linejoin="round" stroke-linecap="round"/><circle cx="180" cy="104" r="64" fill="#F7D3B6" stroke="#3A2C22" stroke-width="6" stroke-linejoin="round" stroke-linecap="round"/><path d="M 118 82 C 117 38, 243 38, 242 82 Q 228 96, 214 90 Q 180 102, 146 90 Q 132 96, 118 82 Z" fill="#1F1B1A" stroke="#3A2C22" stroke-width="6" stroke-linejoin="round" stroke-linecap="round"/><ellipse cx="161" cy="104" rx="14.0" ry="15.959999999999999" fill="#FFFFFF" stroke="#3A2C22" stroke-width="3.5"/><ellipse cx="161" cy="106" rx="10.36" ry="11.76" fill="#3A2C22"/><circle cx="156.5" cy="99.5" r="4.48" fill="#FFFFFF"/><circle cx="164.5" cy="109" r="2.3800000000000003" fill="#FFFFFF"/><ellipse cx="199" cy="104" rx="14.0" ry="15.959999999999999" fill="#FFFFFF" stroke="#3A2C22" stroke-width="3.5"/><ellipse cx="199" cy="106" rx="10.36" ry="11.76" fill="#3A2C22"/><circle cx="194.5" cy="99.5" r="4.48" fill="#FFFFFF"/><circle cx="202.5" cy="109" r="2.3800000000000003" fill="#FFFFFF"/><ellipse cx="142" cy="124" rx="10" ry="6.5" fill="#F58C86" opacity="0.6"/><ellipse cx="218" cy="124" rx="10" ry="6.5" fill="#F58C86" opacity="0.6"/><path d="M 167 130 Q 180 149 193 130 Z" fill="#B83B57" stroke="#3A2C22" stroke-width="4" stroke-linejoin="round" stroke-linecap="round"/></g><path d="M 152 158 Q 126 130 126 104" fill="none" stroke="#FF8FB0" stroke-width="16" stroke-linecap="round"/><circle cx="126" cy="104" r="10" fill="#F7D3B6" stroke="#3A2C22" stroke-width="5" stroke-linejoin="round"/><path d="M 208 158 Q 234 130 234 104" fill="none" stroke="#FF8FB0" stroke-width="16" stroke-linecap="round"/><circle cx="234" cy="104" r="10" fill="#F7D3B6" stroke="#3A2C22" stroke-width="5" stroke-linejoin="round"/></g><circle cx="126" cy="98" r="15" fill="#F7D3B6" stroke="#3A2C22" stroke-width="5"/><path d="M 120 90 L 132 90" stroke="#ECC098" stroke-width="3" stroke-linecap="round"/><path d="M 120 98 L 132 98" stroke="#ECC098" stroke-width="3" stroke-linecap="round"/><path d="M 120 106 L 132 106" stroke="#ECC098" stroke-width="3" stroke-linecap="round"/><circle cx="234" cy="98" r="15" fill="#F7D3B6" stroke="#3A2C22" stroke-width="5"/><path d="M 228 90 L 240 90" stroke="#ECC098" stroke-width="3" stroke-linecap="round"/><path d="M 228 98 L 240 98" stroke="#ECC098" stroke-width="3" stroke-linecap="round"/><path d="M 228 106 L 240 106" stroke="#ECC098" stroke-width="3" stroke-linecap="round"/></svg>